<?xml version="1.0" encoding="UTF-8"?>
<!DOCTYPE svg PUBLIC "-//W3C//DTD SVG 1.1//EN" "http://www.w3.org/Graphics/SVG/1.1/DTD/svg11.dtd">
<svg xmlns="http://www.w3.org/2000/svg" version="1.1" width="687px" height="351px" style="shape-rendering:geometricPrecision; text-rendering:geometricPrecision; image-rendering:optimizeQuality; fill-rule:evenodd; clip-rule:evenodd" xmlns:xlink="http://www.w3.org/1999/xlink">
<g><path style="opacity:1" fill="#e5582c" d="M 341.5,58.5 C 341.335,61.5184 341.502,64.5184 342,67.5C 345.085,68.432 348.252,69.0986 351.5,69.5C 358.03,69.2435 360.197,72.2435 358,78.5C 357.202,81.8931 356.202,85.2265 355,88.5C 354.196,89.8045 353.029,90.4712 351.5,90.5C 348.966,89.7268 346.632,88.7268 344.5,87.5C 340.598,85.5106 336.598,85.1773 332.5,86.5C 332.158,87.3382 331.492,87.6716 330.5,87.5C 329.876,87.9169 329.543,88.5836 329.5,89.5C 329.747,90.7133 330.414,91.38 331.5,91.5C 338.511,94.3388 345.178,97.6721 351.5,101.5C 353.118,103.785 355.118,105.785 357.5,107.5C 358.906,107.973 359.573,108.973 359.5,110.5C 360.292,116.13 360.625,121.797 360.5,127.5C 358.055,136.279 352.389,141.612 343.5,143.5C 341.586,146.684 340.92,150.351 341.5,154.5C 341.389,155.117 341.056,155.617 340.5,156C 335.5,156.667 330.5,156.667 325.5,156C 323.187,153.061 322.854,149.895 324.5,146.5C 324.209,145.351 323.376,144.684 322,144.5C 319.863,143.923 317.696,143.59 315.5,143.5C 311.835,143.498 308.835,142.165 306.5,139.5C 306.5,137.5 306.5,135.5 306.5,133.5C 306.232,131.901 306.566,130.568 307.5,129.5C 308.924,127.485 309.59,125.152 309.5,122.5C 309.866,121.305 310.699,120.639 312,120.5C 314.985,121.745 317.818,123.078 320.5,124.5C 323.017,125.973 325.85,126.64 329,126.5C 331.033,126.494 332.866,126.161 334.5,125.5C 338.273,125.343 339.273,123.676 337.5,120.5C 330.336,117.011 323.336,113.345 316.5,109.5C 316.027,108.094 315.027,107.427 313.5,107.5C 307.053,102.417 304.553,95.75 306,87.5C 306.24,85.1484 307.073,83.1484 308.5,81.5C 309.906,81.0269 310.573,80.0269 310.5,78.5C 312.5,77.1667 314.167,75.5 315.5,73.5C 317.579,71.127 320.246,69.7936 323.5,69.5C 325.414,66.3157 326.08,62.649 325.5,58.5C 325.611,57.8826 325.944,57.3826 326.5,57C 331.167,56.3333 335.833,56.3333 340.5,57C 341.056,57.3826 341.389,57.8826 341.5,58.5 Z M 332.5,63.5 C 333.5,63.5 334.5,63.5 335.5,63.5C 334.738,65.2624 333.404,66.2624 331.5,66.5C 331.557,65.391 331.89,64.391 332.5,63.5 Z M 331.5,71.5 C 333.292,71.366 334.958,71.6993 336.5,72.5C 339.845,74.217 343.511,74.8836 347.5,74.5C 348.209,75.404 349.209,75.7373 350.5,75.5C 350.5,77.1667 350.5,78.8333 350.5,80.5C 349.292,81.2341 347.959,81.5674 346.5,81.5C 343.45,80.0648 340.117,79.3981 336.5,79.5C 333.473,79.2865 330.807,79.9532 328.5,81.5C 326.973,81.427 325.973,82.0937 325.5,83.5C 324.094,83.9731 323.427,84.9731 323.5,86.5C 322.167,88.5 322.167,90.5 323.5,92.5C 323.427,94.0269 324.094,95.0269 325.5,95.5C 325.973,96.9063 326.973,97.573 328.5,97.5C 334.498,101.063 340.832,104.063 347.5,106.5C 347.973,107.906 348.973,108.573 350.5,108.5C 355.826,116.462 355.826,124.462 350.5,132.5C 348.596,132.738 347.262,133.738 346.5,135.5C 343.546,136.428 340.546,137.261 337.5,138C 336.944,138.383 336.611,138.883 336.5,139.5C 335.662,139.842 335.328,140.508 335.5,141.5C 334.992,143.842 333.992,146.009 332.5,148C 334.932,149.087 334.598,149.587 331.5,149.5C 331.806,146.615 331.473,143.948 330.5,141.5C 330.672,140.508 330.338,139.842 329.5,139.5C 325.684,138.518 321.684,137.851 317.5,137.5C 315.981,136.59 314.315,135.757 312.5,135C 313.38,133.644 313.714,132.144 313.5,130.5C 315.099,129.438 316.766,129.438 318.5,130.5C 324.336,132.398 330.336,132.898 336.5,132C 338.066,131.392 339.4,130.558 340.5,129.5C 341.833,129.5 342.5,128.833 342.5,127.5C 345.901,121.391 344.567,116.224 338.5,112C 333.668,109.668 328.668,107.834 323.5,106.5C 322.71,105.599 321.71,104.932 320.5,104.5C 313.939,99.8426 311.772,93.5093 314,85.5C 315.377,83.2462 316.877,81.0795 318.5,79C 322.441,76.8613 326.441,75.028 330.5,73.5C 331.338,73.1583 331.672,72.4916 331.5,71.5 Z"/></g>
<g><path style="opacity:0.149" fill="#655251" d="M 325.5,58.5 C 326.08,62.649 325.414,66.3157 323.5,69.5C 324.103,65.7272 324.77,62.0606 325.5,58.5 Z"/></g>
<g><path style="opacity:0.481" fill="#8e5445" d="M 341.5,58.5 C 342.317,60.9686 342.817,63.6353 343,66.5C 346.089,67.028 348.923,68.028 351.5,69.5C 348.252,69.0986 345.085,68.432 342,67.5C 341.502,64.5184 341.335,61.5184 341.5,58.5 Z"/></g>
<g><path style="opacity:0.611" fill="#9b5541" d="M 332.5,63.5 C 331.89,64.391 331.557,65.391 331.5,66.5C 331.5,68.1667 331.5,69.8333 331.5,71.5C 331.672,72.4916 331.338,73.1583 330.5,73.5C 329.931,69.6707 330.598,66.3373 332.5,63.5 Z"/></g>
<g><path style="opacity:0.033" fill="#535358" d="M 335.5,63.5 C 336.477,66.2869 336.81,69.2869 336.5,72.5C 334.958,71.6993 333.292,71.366 331.5,71.5C 331.5,69.8333 331.5,68.1667 331.5,66.5C 333.404,66.2624 334.738,65.2624 335.5,63.5 Z"/></g>
<g><path style="opacity:0.49" fill="#8c5445" d="M 315.5,73.5 C 314.167,75.5 312.5,77.1667 310.5,78.5C 311.167,75.8333 312.833,74.1667 315.5,73.5 Z"/></g>
<g><path style="opacity:0.678" fill="#995643" d="M 347.5,74.5 C 348.833,74.5 350.167,74.5 351.5,74.5C 351.795,76.7354 351.461,78.7354 350.5,80.5C 350.5,78.8333 350.5,77.1667 350.5,75.5C 349.209,75.7373 348.209,75.404 347.5,74.5 Z"/></g>
<g><path style="opacity:0.404" fill="#8e5445" d="M 310.5,78.5 C 310.573,80.0269 309.906,81.0269 308.5,81.5C 308.427,79.9731 309.094,78.9731 310.5,78.5 Z"/></g>
<g><path style="opacity:0.224" fill="#695452" d="M 350.5,80.5 C 350.38,81.5862 349.713,82.2528 348.5,82.5C 347.584,82.4573 346.917,82.1239 346.5,81.5C 347.959,81.5674 349.292,81.2341 350.5,80.5 Z"/></g>
<g><path style="opacity:0.796" fill="#9e5641" d="M 328.5,81.5 C 328.027,82.9063 327.027,83.573 325.5,83.5C 325.973,82.0937 326.973,81.427 328.5,81.5 Z"/></g>
<g><path style="opacity:0.231" fill="#7a544c" d="M 325.5,83.5 C 325.573,85.0269 324.906,86.0269 323.5,86.5C 323.427,84.9731 324.094,83.9731 325.5,83.5 Z"/></g>
<g><path style="opacity:0.523" fill="#a5543e" d="M 332.5,86.5 C 336.598,85.1773 340.598,85.5106 344.5,87.5C 340.519,86.9791 336.519,86.6458 332.5,86.5 Z"/></g>
<g><path style="opacity:0.065" fill="#615353" d="M 330.5,87.5 C 330.433,88.9587 330.766,90.2921 331.5,91.5C 330.414,91.38 329.747,90.7133 329.5,89.5C 329.543,88.5836 329.876,87.9169 330.5,87.5 Z"/></g>
<g><path style="opacity:1" fill="#dd572e" d="M 263.5,90.5 C 274.505,90.3335 285.505,90.5002 296.5,91C 298.698,92.67 299.032,94.67 297.5,97C 286.167,97.6667 274.833,97.6667 263.5,97C 260.939,94.8441 260.939,92.6774 263.5,90.5 Z"/></g>
<g><path style="opacity:1" fill="#df582f" d="M 361.5,90.5 C 375.837,90.3334 390.171,90.5001 404.5,91C 406.698,92.67 407.032,94.67 405.5,97C 390.833,97.6667 376.167,97.6667 361.5,97C 358.939,94.8441 358.939,92.6774 361.5,90.5 Z"/></g>
<g><path style="opacity:0.004" fill="#5a5255" d="M 323.5,92.5 C 324.906,92.9731 325.573,93.9731 325.5,95.5C 324.094,95.0269 323.427,94.0269 323.5,92.5 Z"/></g>
<g><path style="opacity:0.298" fill="#74534d" d="M 325.5,95.5 C 327.027,95.427 328.027,96.0937 328.5,97.5C 326.973,97.573 325.973,96.9063 325.5,95.5 Z"/></g>
<g><path style="opacity:0.261" fill="#855549" d="M 404.5,103.5 C 391.829,103.333 379.162,103.5 366.5,104C 365.167,105.333 365.167,106.667 366.5,108C 379.162,108.5 391.829,108.667 404.5,108.5C 391.673,109.66 378.673,109.827 365.5,109C 364.167,107 364.167,105 365.5,103C 378.673,102.173 391.673,102.34 404.5,103.5 Z"/></g>
<g><path style="opacity:1" fill="#dd572e" d="M 263.5,102.5 C 275.838,102.333 288.171,102.5 300.5,103C 301.833,105 301.833,107 300.5,109C 288.167,109.667 275.833,109.667 263.5,109C 260.939,106.844 260.939,104.677 263.5,102.5 Z"/></g>
<g><path style="opacity:0.58" fill="#905646" d="M 351.5,101.5 C 354.522,102.522 356.522,104.522 357.5,107.5C 355.118,105.785 353.118,103.785 351.5,101.5 Z"/></g>
<g><path style="opacity:1" fill="#fa5724" d="M 404.5,103.5 C 405.649,103.791 406.316,104.624 406.5,106C 406.316,107.376 405.649,108.209 404.5,108.5C 391.829,108.667 379.162,108.5 366.5,108C 365.167,106.667 365.167,105.333 366.5,104C 379.162,103.5 391.829,103.333 404.5,103.5 Z"/></g>
<g><path style="opacity:0.996" fill="#9c5643" d="M 320.5,104.5 C 321.71,104.932 322.71,105.599 323.5,106.5C 321.821,106.715 320.821,106.048 320.5,104.5 Z"/></g>
<g><path style="opacity:0.38" fill="#865448" d="M 347.5,106.5 C 349.027,106.427 350.027,107.094 350.5,108.5C 348.973,108.573 347.973,107.906 347.5,106.5 Z"/></g>
<g><path style="opacity:0.549" fill="#995442" d="M 313.5,107.5 C 315.027,107.427 316.027,108.094 316.5,109.5C 314.973,109.573 313.973,108.906 313.5,107.5 Z"/></g>
<g><path style="opacity:0.543" fill="#945241" d="M 302.5,115.5 C 289.5,115.5 276.5,115.5 263.5,115.5C 264.946,114.06 266.779,113.393 269,113.5C 280.325,114.09 291.491,114.757 302.5,115.5 Z"/></g>
<g><path style="opacity:0.537" fill="#935545" d="M 405.5,115.5 C 393.833,115.5 382.167,115.5 370.5,115.5C 372.462,113.983 374.795,113.316 377.5,113.5C 386.999,114.025 396.332,114.691 405.5,115.5 Z"/></g>
<g><path style="opacity:0.051" fill="#584e51" d="M 263.5,115.5 C 262.766,116.708 262.433,118.041 262.5,119.5C 261.876,119.083 261.543,118.416 261.5,117.5C 261.747,116.287 262.414,115.62 263.5,115.5 Z"/></g>
<g><path style="opacity:1" fill="#e8582b" d="M 263.5,115.5 C 276.5,115.5 289.5,115.5 302.5,115.5C 303.887,117.489 303.553,119.322 301.5,121C 288.833,121.667 276.167,121.667 263.5,121C 262.944,120.617 262.611,120.117 262.5,119.5C 262.433,118.041 262.766,116.708 263.5,115.5 Z"/></g>
<g><path style="opacity:1" fill="#e8582c" d="M 370.5,115.5 C 382.167,115.5 393.833,115.5 405.5,115.5C 406.965,117.546 406.632,119.38 404.5,121C 393.167,121.667 381.833,121.667 370.5,121C 369.944,120.617 369.611,120.117 369.5,119.5C 369.833,118.167 370.167,116.833 370.5,115.5 Z"/></g>
<g><path style="opacity:0.8" fill="#8c5648" d="M 370.5,115.5 C 370.167,116.833 369.833,118.167 369.5,119.5C 368.147,117.872 368.481,116.538 370.5,115.5 Z"/></g>
<g><path style="opacity:0.029" fill="#4c525a" d="M 365.5,118.5 C 367.465,118.948 367.798,119.948 366.5,121.5C 365.614,120.675 365.281,119.675 365.5,118.5 Z"/></g>
<g><path style="opacity:0.757" fill="#925545" d="M 359.5,110.5 C 362.652,116.065 362.985,121.731 360.5,127.5C 360.625,121.797 360.292,116.13 359.5,110.5 Z"/></g>
<g><path style="opacity:0.757" fill="#8d5546" d="M 337.5,120.5 C 339.273,123.676 338.273,125.343 334.5,125.5C 336.69,124.626 337.69,122.959 337.5,120.5 Z"/></g>
<g><path style="opacity:0.341" fill="#7b534a" d="M 320.5,124.5 C 325.13,125.229 329.797,125.563 334.5,125.5C 332.866,126.161 331.033,126.494 329,126.5C 325.85,126.64 323.017,125.973 320.5,124.5 Z"/></g>
<g><path style="opacity:0.639" fill="#985441" d="M 309.5,122.5 C 309.59,125.152 308.924,127.485 307.5,129.5C 307.41,126.848 308.076,124.515 309.5,122.5 Z"/></g>
<g><path style="opacity:0.957" fill="#9c5541" d="M 318.5,130.5 C 316.766,129.438 315.099,129.438 313.5,130.5C 315.038,127.952 316.704,127.952 318.5,130.5 Z"/></g>
<g><path style="opacity:0.004" fill="#70524e" d="M 342.5,127.5 C 342.5,128.833 341.833,129.5 340.5,129.5C 340.833,128.5 341.5,127.833 342.5,127.5 Z"/></g>
<g><path style="opacity:0.592" fill="#925444" d="M 350.5,132.5 C 349.738,134.262 348.404,135.262 346.5,135.5C 347.262,133.738 348.596,132.738 350.5,132.5 Z"/></g>
<g><path style="opacity:0.631" fill="#7d5248" d="M 306.5,133.5 C 306.5,135.5 306.5,137.5 306.5,139.5C 305.522,139.189 304.855,138.522 304.5,137.5C 304.994,135.974 305.661,134.641 306.5,133.5 Z"/></g>
<g><path style="opacity:0.953" fill="#a5563f" d="M 346.5,135.5 C 343.646,137.729 340.313,139.062 336.5,139.5C 336.611,138.883 336.944,138.383 337.5,138C 340.546,137.261 343.546,136.428 346.5,135.5 Z"/></g>
<g><path style="opacity:0.227" fill="#70524d" d="M 317.5,137.5 C 321.684,137.851 325.684,138.518 329.5,139.5C 325.183,139.917 321.183,139.25 317.5,137.5 Z"/></g>
<g><path style="opacity:0.048" fill="#495058" d="M 330.5,141.5 C 331.473,143.948 331.806,146.615 331.5,149.5C 334.598,149.587 334.932,149.087 332.5,148C 333.992,146.009 334.992,143.842 335.5,141.5C 335.5,144.5 335.5,147.5 335.5,150.5C 333.833,150.5 332.167,150.5 330.5,150.5C 330.5,147.5 330.5,144.5 330.5,141.5 Z"/></g>
<g><path style="opacity:0.353" fill="#7d5349" d="M 315.5,143.5 C 317.696,143.59 319.863,143.923 322,144.5C 323.376,144.684 324.209,145.351 324.5,146.5C 321.298,145.869 318.298,144.869 315.5,143.5 Z"/></g>
<g><path style="opacity:0.045" fill="#4e5157" d="M 343.5,143.5 C 342.897,147.273 342.23,150.939 341.5,154.5C 340.92,150.351 341.586,146.684 343.5,143.5 Z"/></g>
<g><path style="opacity:0.993" fill="#d2d3d5" d="M 151.5,216.5 C 146.167,216.5 140.833,216.5 135.5,216.5C 132.27,216.439 130.437,214.772 130,211.5C 129.087,202.424 129.42,193.424 131,184.5C 138.257,181.137 145.757,180.637 153.5,183C 155.487,184.319 156.654,186.152 157,188.5C 157.905,196.911 157.572,205.245 156,213.5C 154.871,215.141 153.371,216.141 151.5,216.5 Z M 137.5,188.5 C 141.5,188.5 145.5,188.5 149.5,188.5C 149.666,195.841 149.5,203.174 149,210.5C 147.262,211.127 145.429,211.46 143.5,211.5C 140.989,211.712 138.822,211.045 137,209.5C 136.377,202.477 136.543,195.477 137.5,188.5 Z"/></g>
<g><path style="opacity:0.754" fill="#a2a5a9" d="M 277.5,187.5 C 277.5,186.167 277.5,184.833 277.5,183.5C 269.5,183.5 261.5,183.5 253.5,183.5C 253.5,184.833 253.5,186.167 253.5,187.5C 256.5,187.5 259.5,187.5 262.5,187.5C 262.5,197.167 262.5,206.833 262.5,216.5C 261.506,207.348 261.173,198.015 261.5,188.5C 258.5,188.5 255.5,188.5 252.5,188.5C 251.862,186.54 251.862,184.707 252.5,183C 261.16,182.5 269.827,182.334 278.5,182.5C 278.784,184.415 278.451,186.081 277.5,187.5 Z"/></g>
<g><path style="opacity:0.982" fill="#dcddde" d="M 109.5,182.5 C 109.5,192.167 109.5,201.833 109.5,211.5C 115.167,211.5 120.833,211.5 126.5,211.5C 126.5,213.167 126.5,214.833 126.5,216.5C 118.5,216.5 110.5,216.5 102.5,216.5C 102.643,205.563 102.643,194.73 102.5,184C 104.594,182.648 106.927,182.148 109.5,182.5 Z"/></g>
<g><path style="opacity:0.267" fill="#6d7278" d="M 109.5,182.5 C 110.494,191.652 110.827,200.985 110.5,210.5C 116.026,210.179 121.36,210.512 126.5,211.5C 120.833,211.5 115.167,211.5 109.5,211.5C 109.5,201.833 109.5,192.167 109.5,182.5 Z"/></g>
<g><path style="opacity:0.993" fill="#d9dadb" d="M 166.5,182.5 C 173.167,182.5 179.833,182.5 186.5,182.5C 186.739,184.467 186.406,186.301 185.5,188C 180.5,188.333 175.5,188.667 170.5,189C 169.167,196 169.167,203 170.5,210C 175.823,210.499 181.156,210.666 186.5,210.5C 186.5,212.5 186.5,214.5 186.5,216.5C 179.825,216.666 173.158,216.5 166.5,216C 165.584,215.626 164.75,215.126 164,214.5C 162.389,205.268 162.055,195.935 163,186.5C 163.69,184.65 164.856,183.316 166.5,182.5 Z"/></g>
<g><path style="opacity:0.993" fill="#e1e1e2" d="M 197.5,182.5 C 197.5,187.5 197.5,192.5 197.5,197.5C 201.833,197.5 206.167,197.5 210.5,197.5C 210.5,192.5 210.5,187.5 210.5,182.5C 212.833,182.5 215.167,182.5 217.5,182.5C 217.5,193.833 217.5,205.167 217.5,216.5C 215.167,216.5 212.833,216.5 210.5,216.5C 210.5,211.5 210.5,206.5 210.5,201.5C 206.167,201.5 201.833,201.5 197.5,201.5C 197.5,206.5 197.5,211.5 197.5,216.5C 195.167,216.5 192.833,216.5 190.5,216.5C 191.779,205.624 191.779,194.791 190.5,184C 192.594,182.648 194.927,182.148 197.5,182.5 Z"/></g>
<g><path style="opacity:0.991" fill="#e3e3e4" d="M 224.5,182.5 C 231.175,182.334 237.842,182.5 244.5,183C 249.459,187.984 249.793,193.318 245.5,199C 249.939,201.976 251.439,206.143 250,211.5C 249.215,213.286 248.049,214.786 246.5,216C 239.174,216.5 231.841,216.666 224.5,216.5C 224.426,205.017 224.426,193.684 224.5,182.5 Z M 239.5,188.5 C 241.441,190.011 241.941,192.011 241,194.5C 238.096,196.227 234.93,196.893 231.5,196.5C 231.5,193.833 231.5,191.167 231.5,188.5C 234.167,188.5 236.833,188.5 239.5,188.5 Z M 241.5,202.5 C 244.388,205.604 244.055,208.271 240.5,210.5C 237.5,210.5 234.5,210.5 231.5,210.5C 231.5,207.833 231.5,205.167 231.5,202.5C 234.833,202.5 238.167,202.5 241.5,202.5 Z"/></g>
<g><path style="opacity:0.991" fill="#ededed" d="M 277.5,187.5 C 274.5,187.5 271.5,187.5 268.5,187.5C 268.5,196.167 268.5,204.833 268.5,213.5C 268.5,214.5 268.5,215.5 268.5,216.5C 266.5,216.5 264.5,216.5 262.5,216.5C 262.5,206.833 262.5,197.167 262.5,187.5C 259.5,187.5 256.5,187.5 253.5,187.5C 253.5,186.167 253.5,184.833 253.5,183.5C 261.5,183.5 269.5,183.5 277.5,183.5C 277.5,184.833 277.5,186.167 277.5,187.5 Z"/></g>
<g><path style="opacity:0.993" fill="#d7d8d9" d="M 286.5,182.5 C 293.167,182.5 299.833,182.5 306.5,182.5C 306.822,184.722 306.155,186.556 304.5,188C 299.833,188.333 295.167,188.667 290.5,189C 289.874,189.75 289.374,190.584 289,191.5C 288.21,197.552 288.376,203.552 289.5,209.5C 294.802,210.329 300.136,210.829 305.5,211C 306.406,212.699 306.739,214.533 306.5,216.5C 299.492,216.666 292.492,216.5 285.5,216C 284.667,215.167 283.833,214.333 283,213.5C 281.393,204.936 281.06,196.27 282,187.5C 283.025,185.313 284.525,183.646 286.5,182.5 Z"/></g>
<g><path style="opacity:0.99" fill="#dfdfe0" d="M 346.5,187.5 C 341.167,187.5 335.833,187.5 330.5,187.5C 330.19,190.713 330.523,193.713 331.5,196.5C 335.167,196.5 338.833,196.5 342.5,196.5C 342.5,198.167 342.5,199.833 342.5,201.5C 338.5,201.5 334.5,201.5 330.5,201.5C 330.5,204.833 330.5,208.167 330.5,211.5C 336.167,211.5 341.833,211.5 347.5,211.5C 348.301,213.042 348.634,214.708 348.5,216.5C 340.167,216.5 331.833,216.5 323.5,216.5C 323.5,205.167 323.5,193.833 323.5,182.5C 331.507,182.334 339.507,182.5 347.5,183C 347.833,183.333 348.167,183.667 348.5,184C 347.915,185.302 347.249,186.469 346.5,187.5 Z"/></g>
<g><path style="opacity:0.995" fill="#d8d9da" d="M 350.5,182.5 C 353.247,182.187 355.914,182.52 358.5,183.5C 360.246,187.327 362.246,190.993 364.5,194.5C 366.754,190.993 368.754,187.327 370.5,183.5C 373.086,182.52 375.753,182.187 378.5,182.5C 376.121,188.26 373.454,193.927 370.5,199.5C 372.766,203.609 375.266,207.609 378,211.5C 379.009,213.025 379.509,214.692 379.5,216.5C 376.813,216.664 374.146,216.497 371.5,216C 369.543,211.917 367.21,208.083 364.5,204.5C 361.917,207.997 359.584,211.664 357.5,215.5C 354.914,216.48 352.247,216.813 349.5,216.5C 351.823,210.355 354.823,204.522 358.5,199C 356.384,194.601 353.884,190.434 351,186.5C 350.51,185.207 350.343,183.873 350.5,182.5 Z"/></g>
<g><path style="opacity:0.991" fill="#d7d8d9" d="M 389.5,209.5 C 394.396,211.446 399.729,212.113 405.5,211.5C 405.5,213.167 405.5,214.833 405.5,216.5C 398.825,216.666 392.158,216.5 385.5,216C 383.513,214.681 382.346,212.848 382,210.5C 381.333,203.5 381.333,196.5 382,189.5C 382.45,187.481 383.283,185.648 384.5,184C 391.719,182.571 399.053,182.071 406.5,182.5C 406.739,184.467 406.406,186.301 405.5,188C 400.25,188.193 395.083,188.693 390,189.5C 389.5,196.158 389.334,202.825 389.5,209.5 Z"/></g>
<g><path style="opacity:0.989" fill="#dddedf" d="M 417.5,182.5 C 417.5,187.5 417.5,192.5 417.5,197.5C 421.833,197.5 426.167,197.5 430.5,197.5C 430.5,192.5 430.5,187.5 430.5,182.5C 432.527,182.338 434.527,182.505 436.5,183C 436.957,183.414 437.291,183.914 437.5,184.5C 437.455,194.689 437.122,205.355 436.5,216.5C 434.5,216.5 432.5,216.5 430.5,216.5C 430.5,211.5 430.5,206.5 430.5,201.5C 426.167,201.5 421.833,201.5 417.5,201.5C 417.5,206.5 417.5,211.5 417.5,216.5C 415.167,216.5 412.833,216.5 410.5,216.5C 410.5,205.167 410.5,193.833 410.5,182.5C 412.833,182.5 415.167,182.5 417.5,182.5 Z"/></g>
<g><path style="opacity:0.996" fill="#dadbdc" d="M 451.5,182.5 C 454.833,182.5 458.167,182.5 461.5,182.5C 464.629,193.886 467.962,205.22 471.5,216.5C 468.753,216.813 466.086,216.48 463.5,215.5C 463.528,210.362 461.028,208.362 456,209.5C 454.167,209.833 452.333,210.167 450.5,210.5C 449.109,216.257 445.775,217.757 440.5,215C 444.467,204.266 448.133,193.433 451.5,182.5 Z M 457.5,194.5 C 458.323,197.461 458.99,200.461 459.5,203.5C 457.076,203.808 454.743,203.474 452.5,202.5C 453.482,199.904 454.149,197.238 454.5,194.5C 455.222,194.082 455.722,193.416 456,192.5C 456.278,193.416 456.778,194.082 457.5,194.5 Z"/></g>
<g><path style="opacity:0.687" fill="#afb1b4" d="M 483.5,184.5 C 481.283,183.631 478.95,183.298 476.5,183.5C 476.5,194.5 476.5,205.5 476.5,216.5C 475.675,212.501 475.008,208.335 474.5,204C 475.41,196.866 475.744,189.7 475.5,182.5C 478.698,181.964 481.365,182.631 483.5,184.5 Z"/></g>
<g><path style="opacity:0.997" fill="#dcddde" d="M 483.5,196.5 C 483.013,195.527 482.513,194.527 482,193.5C 481.5,201.159 481.334,208.826 481.5,216.5C 479.833,216.5 478.167,216.5 476.5,216.5C 476.5,205.5 476.5,194.5 476.5,183.5C 478.95,183.298 481.283,183.631 483.5,184.5C 486.972,190.771 490.472,197.105 494,203.5C 493.69,196.726 493.69,190.059 494,183.5C 496.381,182.565 498.881,182.232 501.5,182.5C 501.5,193.833 501.5,205.167 501.5,216.5C 498.552,216.777 495.719,216.444 493,215.5C 489.295,209.423 486.128,203.09 483.5,196.5 Z"/></g>
<g><path style="opacity:0.996" fill="#e6e6e6" d="M 514.5,190.5 C 513.167,196.833 513.167,203.167 514.5,209.5C 515.167,209.5 515.5,209.833 515.5,210.5C 518.962,211.482 522.629,211.815 526.5,211.5C 526.5,207.167 526.5,202.833 526.5,198.5C 528.5,198.5 530.5,198.5 532.5,198.5C 532.5,204.5 532.5,210.5 532.5,216.5C 525.492,216.666 518.492,216.5 511.5,216C 509.574,215.578 508.574,214.411 508.5,212.5C 508.5,203.833 508.5,195.167 508.5,186.5C 509.29,185.206 510.29,184.039 511.5,183C 518.492,182.5 525.492,182.334 532.5,182.5C 532.528,184.582 531.861,186.416 530.5,188C 525.5,188.333 520.5,188.667 515.5,189C 514.944,189.383 514.611,189.883 514.5,190.5 Z"/></g>
<g><path style="opacity:0.993" fill="#e4e5e5" d="M 562.5,187.5 C 557.36,188.488 552.026,188.821 546.5,188.5C 546.5,191.167 546.5,193.833 546.5,196.5C 550.833,196.5 555.167,196.5 559.5,196.5C 559.167,198.5 558.833,200.5 558.5,202.5C 554.5,202.5 550.5,202.5 546.5,202.5C 546.5,205.167 546.5,207.833 546.5,210.5C 551.64,211.488 556.974,211.821 562.5,211.5C 562.5,213.167 562.5,214.833 562.5,216.5C 555.167,216.5 547.833,216.5 540.5,216.5C 540.5,205.5 540.5,194.5 540.5,183.5C 547.833,183.5 555.167,183.5 562.5,183.5C 562.5,184.833 562.5,186.167 562.5,187.5 Z"/></g>
<g><path style="opacity:0.473" fill="#888c91" d="M 346.5,187.5 C 341.695,188.487 336.695,188.821 331.5,188.5C 331.5,191.167 331.5,193.833 331.5,196.5C 330.523,193.713 330.19,190.713 330.5,187.5C 335.833,187.5 341.167,187.5 346.5,187.5 Z"/></g>
<g><path style="opacity:0.281" fill="#81868b" d="M 239.5,188.5 C 236.833,188.5 234.167,188.5 231.5,188.5C 231.5,191.167 231.5,193.833 231.5,196.5C 230.523,193.713 230.19,190.713 230.5,187.5C 233.713,187.19 236.713,187.523 239.5,188.5 Z"/></g>
<g><path style="opacity:0.015" fill="#545b62" d="M 277.5,187.5 C 275.052,188.473 272.385,188.806 269.5,188.5C 269.826,197.017 269.493,205.35 268.5,213.5C 268.5,204.833 268.5,196.167 268.5,187.5C 271.5,187.5 274.5,187.5 277.5,187.5 Z"/></g>
<g><path style="opacity:0.78" fill="#b3b5b8" d="M 508.5,186.5 C 508.5,195.167 508.5,203.833 508.5,212.5C 507.751,211.469 507.085,210.302 506.5,209C 507.042,201.612 507.709,194.112 508.5,186.5 Z"/></g>
<g><path style="opacity:0.392" fill="#757b80" d="M 457.5,194.5 C 456.778,194.082 456.278,193.416 456,192.5C 455.722,193.416 455.222,194.082 454.5,194.5C 455.572,187.908 456.572,187.908 457.5,194.5 Z"/></g>
<g><path style="opacity:0.514" fill="#9b9ea2" d="M 514.5,190.5 C 514.823,196.933 514.823,203.266 514.5,209.5C 513.167,203.167 513.167,196.833 514.5,190.5 Z"/></g>
<g><path style="opacity:0.703" fill="#8e9297" d="M 197.5,182.5 C 198.486,186.97 198.819,191.637 198.5,196.5C 202.206,195.461 205.873,195.461 209.5,196.5C 209.181,191.637 209.514,186.97 210.5,182.5C 210.5,187.5 210.5,192.5 210.5,197.5C 206.167,197.5 201.833,197.5 197.5,197.5C 197.5,192.5 197.5,187.5 197.5,182.5 Z"/></g>
<g><path style="opacity:0.716" fill="#96999e" d="M 417.5,182.5 C 418.486,186.97 418.819,191.637 418.5,196.5C 422.315,195.895 425.982,195.895 429.5,196.5C 429.181,191.637 429.514,186.97 430.5,182.5C 430.5,187.5 430.5,192.5 430.5,197.5C 426.167,197.5 421.833,197.5 417.5,197.5C 417.5,192.5 417.5,187.5 417.5,182.5 Z"/></g>
<g><path style="opacity:0.591" fill="#a4a7ab" d="M 562.5,187.5 C 562.5,186.167 562.5,184.833 562.5,183.5C 555.167,183.5 547.833,183.5 540.5,183.5C 540.5,194.5 540.5,205.5 540.5,216.5C 539.598,213.017 538.932,209.35 538.5,205.5C 539.399,197.862 539.732,190.196 539.5,182.5C 547.087,182.814 554.587,182.481 562,181.5C 563.707,183.483 563.874,185.483 562.5,187.5 Z"/></g>
<g><path style="opacity:0.279" fill="#74797f" d="M 241.5,202.5 C 238.167,202.5 234.833,202.5 231.5,202.5C 231.5,205.167 231.5,207.833 231.5,210.5C 234.5,210.5 237.5,210.5 240.5,210.5C 237.375,211.479 234.042,211.813 230.5,211.5C 230.5,208.167 230.5,204.833 230.5,201.5C 234.371,201.185 238.038,201.518 241.5,202.5 Z"/></g>
<g><path style="opacity:0.247" fill="#7b8086" d="M 430.5,216.5 C 429.514,212.03 429.181,207.363 429.5,202.5C 425.833,202.5 422.167,202.5 418.5,202.5C 418.819,207.363 418.486,212.03 417.5,216.5C 417.5,211.5 417.5,206.5 417.5,201.5C 421.833,201.5 426.167,201.5 430.5,201.5C 430.5,206.5 430.5,211.5 430.5,216.5 Z"/></g>
<g><path style="opacity:0.559" fill="#9da1a4" d="M 483.5,196.5 C 482.833,203.167 482.167,209.833 481.5,216.5C 481.334,208.826 481.5,201.159 482,193.5C 482.513,194.527 483.013,195.527 483.5,196.5 Z"/></g>
<g><path style="opacity:0.204" fill="#6d7279" d="M 532.5,216.5 C 532.5,210.5 532.5,204.5 532.5,198.5C 530.5,198.5 528.5,198.5 526.5,198.5C 526.5,202.833 526.5,207.167 526.5,211.5C 522.629,211.815 518.962,211.482 515.5,210.5C 518.833,210.5 522.167,210.5 525.5,210.5C 525.5,206.167 525.5,201.833 525.5,197.5C 528.167,197.5 530.833,197.5 533.5,197.5C 533.823,204.022 533.49,210.355 532.5,216.5 Z"/></g>
<g><path style="opacity:0.35" fill="#7b8085" d="M 210.5,216.5 C 209.514,212.03 209.181,207.363 209.5,202.5C 205.833,202.5 202.167,202.5 198.5,202.5C 198.819,207.363 198.486,212.03 197.5,216.5C 197.5,211.5 197.5,206.5 197.5,201.5C 201.833,201.5 206.167,201.5 210.5,201.5C 210.5,206.5 210.5,211.5 210.5,216.5 Z"/></g>
<g><path style="opacity:0.248" fill="#767b81" d="M 342.5,196.5 C 343.461,198.265 343.795,200.265 343.5,202.5C 339.5,202.5 335.5,202.5 331.5,202.5C 331.5,205.167 331.5,207.833 331.5,210.5C 337.026,210.179 342.36,210.512 347.5,211.5C 341.833,211.5 336.167,211.5 330.5,211.5C 330.5,208.167 330.5,204.833 330.5,201.5C 334.5,201.5 338.5,201.5 342.5,201.5C 342.5,199.833 342.5,198.167 342.5,196.5 Z"/></g>
<g><path style="opacity:0.248" fill="#81858a" d="M 389.5,209.5 C 395.075,210.452 400.741,210.786 406.5,210.5C 406.795,212.735 406.461,214.735 405.5,216.5C 405.5,214.833 405.5,213.167 405.5,211.5C 399.729,212.113 394.396,211.446 389.5,209.5 Z"/></g>
<g><path style="opacity:0.248" fill="#7f858a" d="M 546.5,210.5 C 552.167,210.5 557.833,210.5 563.5,210.5C 563.795,212.735 563.461,214.735 562.5,216.5C 562.5,214.833 562.5,213.167 562.5,211.5C 556.974,211.821 551.64,211.488 546.5,210.5 Z"/></g>
<g><path style="opacity:0.456" fill="#73787e" d="M 135.5,216.5 C 140.833,216.5 146.167,216.5 151.5,216.5C 149.651,217.837 147.484,218.503 145,218.5C 142.994,217.927 141.16,217.927 139.5,218.5C 137.974,218.006 136.641,217.339 135.5,216.5 Z"/></g>
</svg>
