<svg xmlns="http://www.w3.org/2000/svg"  viewBox="0 0 128 128" width="128px" height="128px"><path d="M 30.560547 11 C 25.380547 11 20.700625 14.070312 18.640625 18.820312 L 4.0097656 52.449219 C 1.8597656 57.389219 3.0203906 63.230469 6.9003906 66.980469 L 54.960938 113.43945 C 57.490938 115.88945 60.74 117.10937 64 117.10938 C 67.25 117.10938 70.499063 115.87945 73.039062 113.43945 L 121.09961 66.980469 C 124.97961 63.230469 126.14023 57.389219 123.99023 52.449219 L 109.36914 18.820312 C 107.29914 14.070312 102.61945 11 97.439453 11 L 30.560547 11 z M 30.560547 17 L 97.449219 17 C 100.23922 17 102.75914 18.650937 103.86914 21.210938 L 118.49023 54.839844 C 119.64023 57.499844 119.01969 60.640156 116.92969 62.660156 L 68.869141 109.11914 C 66.139141 111.75914 61.870625 111.75914 59.140625 109.11914 L 11.070312 62.660156 C 8.9803125 60.640156 8.3595312 57.499844 9.5195312 54.839844 L 24.140625 21.210938 C 25.250625 18.650938 27.770547 17 30.560547 17 z M 39 31 C 37.34 31 36 32.34 36 34 C 36 35.66 37.34 37 39 37 L 61 37 L 61 62.970703 C 45.14 62.690703 35.449609 60.209766 32.599609 58.509766 C 34.689609 57.289766 40.770469 55.339453 52.230469 54.439453 C 53.880469 54.309453 55.120234 52.870703 54.990234 51.220703 C 54.860234 49.570703 53.419531 48.330938 51.769531 48.460938 C 34.669531 49.800937 26 53.18 26 58.5 C 26 67.38 50.98 68.770703 61 68.970703 L 61 94 C 61 95.66 62.34 97 64 97 C 65.66 97 67 95.66 67 94 L 67 68.970703 C 77.02 68.770703 102 67.38 102 58.5 C 102 53.18 93.330469 49.800938 76.230469 48.460938 C 74.570469 48.320937 73.129766 49.570703 73.009766 51.220703 C 72.879766 52.870703 74.119531 54.319453 75.769531 54.439453 C 87.229531 55.339453 93.310391 57.279766 95.400391 58.509766 C 92.550391 60.209766 82.87 62.690703 67 62.970703 L 67 37 L 89 37 C 90.66 37 92 35.66 92 34 C 92 32.34 90.66 31 89 31 L 39 31 z"/></svg>