<svg xmlns="http://www.w3.org/2000/svg" xmlns:xlink="http://www.w3.org/1999/xlink" viewBox="0,0,256,256" width="64px" height="64px"><g fill="#ffffff" fill-rule="nonzero" stroke="none" stroke-width="1" stroke-linecap="butt" stroke-linejoin="miter" stroke-miterlimit="10" stroke-dasharray="" stroke-dashoffset="0" font-family="none" font-weight="none" font-size="none" text-anchor="none" style="mix-blend-mode: normal"><g transform="scale(2,2)"><path d="M30.56055,11c-5.18,0 -9.85992,3.07031 -11.91992,7.82031l-14.63086,33.62891c-2.15,4.94 -0.98937,10.78125 2.89063,14.53125l48.06055,46.45898c2.53,2.45 5.77906,3.66992 9.03906,3.66993c3.25,0 6.49906,-1.22993 9.03906,-3.66993l48.06055,-46.45898c3.88,-3.75 5.04062,-9.59125 2.89062,-14.53125l-14.62109,-33.62891c-2.07,-4.75 -6.74969,-7.82031 -11.92969,-7.82031zM30.56055,17h66.88867c2.79,0 5.30992,1.65094 6.41992,4.21094l14.62109,33.62891c1.15,2.66 0.52946,5.80031 -1.56054,7.82031l-48.06055,46.45898c-2.73,2.64 -6.99852,2.64 -9.72852,0l-48.07031,-46.45898c-2.09,-2.02 -2.71078,-5.16031 -1.55078,-7.82031l14.62109,-33.62891c1.11,-2.56 3.62992,-4.21094 6.41992,-4.21094zM39,31c-1.66,0 -3,1.34 -3,3c0,1.66 1.34,3 3,3h22v25.9707c-15.86,-0.28 -25.55039,-2.76094 -28.40039,-4.46094c2.09,-1.22 8.17086,-3.17031 19.63086,-4.07031c1.65,-0.13 2.88977,-1.56875 2.75977,-3.21875c-0.13,-1.65 -1.5707,-2.88976 -3.2207,-2.75977c-17.1,1.34 -25.76953,4.71906 -25.76953,10.03906c0,8.88 24.98,10.2707 35,10.4707v25.0293c0,1.66 1.34,3 3,3c1.66,0 3,-1.34 3,-3v-25.0293c10.02,-0.2 35,-1.5907 35,-10.4707c0,-5.32 -8.66953,-8.69906 -25.76953,-10.03906c-1.66,-0.14 -3.1007,1.10977 -3.2207,2.75977c-0.13,1.65 1.10976,3.09875 2.75977,3.21875c11.46,0.9 17.54086,2.84031 19.63086,4.07031c-2.85,1.7 -12.53039,4.18094 -28.40039,4.46094v-25.9707h22c1.66,0 3,-1.34 3,-3c0,-1.66 -1.34,-3 -3,-3z"></path></g></g></svg>